<svg width="20" height="20" viewBox="0 0 20 20" fill="none" xmlns="http://www.w3.org/2000/svg">
<path fill-rule="evenodd" clip-rule="evenodd" d="M5.83159 9.77772L6.60558 5.90776C6.92919 4.2897 8.3499 3.125 10 3.125C11.6501 3.125 13.0708 4.2897 13.3944 5.90776L14.1684 9.77772C14.3995 10.9329 14.9673 11.9939 15.8003 12.827L16.0426 13.0692C16.1754 13.202 16.25 13.3822 16.25 13.57C16.25 13.8998 16.0224 14.1859 15.701 14.2601L14.6745 14.497C11.5986 15.2068 8.40141 15.2068 5.32549 14.497L4.29898 14.2601C3.97763 14.1859 3.75 13.8998 3.75 13.57C3.75 13.3822 3.82462 13.202 3.95744 13.0692L4.19968 12.827C5.03272 11.9939 5.60054 10.9329 5.83159 9.77772ZM3.993 9.41L4.76699 5.54004C5.26589 3.04556 7.45612 1.25 10 1.25C12.5439 1.25 14.7341 3.04557 15.233 5.54004L16.007 9.41C16.1654 10.2022 16.5549 10.9299 17.1262 11.5012L17.3684 11.7434C17.8528 12.2278 18.125 12.8849 18.125 13.57C18.125 14.7729 17.2947 15.8166 16.1226 16.0871L15.0961 16.324C14.22 16.5262 13.3349 16.6755 12.4454 16.772C12.2054 17.9022 11.2017 18.7501 10 18.7501C8.79828 18.7501 7.79461 17.9022 7.55457 16.772C6.66512 16.6755 5.77999 16.5262 4.90388 16.324L3.87737 16.0871C2.70527 15.8166 1.875 14.7729 1.875 13.57C1.875 12.8849 2.14716 12.2278 2.63161 11.7434L2.87385 11.5011C3.44514 10.9299 3.83455 10.2022 3.993 9.41Z" fill="#342DF2"/>
</svg>
