<svg width="12" height="13" viewBox="0 0 12 13" fill="none" xmlns="http://www.w3.org/2000/svg">
<path fill-rule="evenodd" clip-rule="evenodd" d="M3.20455 4.25H3.99253L4.26181 3.50946L4.44822 2.99685C4.50211 2.84865 4.64295 2.75 4.80064 2.75H7.19936C7.35705 2.75 7.49789 2.84865 7.55178 2.99685L7.73819 3.50946L8.00747 4.25H8.79545H9C9.62132 4.25 10.125 4.75368 10.125 5.375V8.75C10.125 9.37132 9.62132 9.875 9 9.875H3C2.37868 9.875 1.875 9.37132 1.875 8.75V5.375C1.875 4.75368 2.37868 4.25 3 4.25H3.20455ZM4.80064 1.625C4.16988 1.625 3.60651 2.0196 3.39095 2.61238L3.20455 3.125H3C1.75736 3.125 0.75 4.13236 0.75 5.375V8.75C0.75 9.99264 1.75736 11 3 11H9C10.2426 11 11.25 9.99264 11.25 8.75V5.375C11.25 4.13236 10.2426 3.125 9 3.125H8.79545L8.60905 2.61239C8.39349 2.0196 7.83012 1.625 7.19936 1.625H4.80064ZM7.125 6.875C7.125 7.49632 6.62132 8 6 8C5.37868 8 4.875 7.49632 4.875 6.875C4.875 6.25368 5.37868 5.75 6 5.75C6.62132 5.75 7.125 6.25368 7.125 6.875ZM8.25 6.875C8.25 8.11764 7.24264 9.125 6 9.125C4.75736 9.125 3.75 8.11764 3.75 6.875C3.75 5.63236 4.75736 4.625 6 4.625C7.24264 4.625 8.25 5.63236 8.25 6.875Z" fill="white"/>
</svg>
