<svg width="14" height="14" viewBox="0 0 14 14" fill="currentColor" xmlns="http://www.w3.org/2000/svg">
<g clip-path="url(#clip0_5278_18244)">
<path fill-rule="evenodd" clip-rule="evenodd" d="M11.8125 7C11.8125 9.65787 9.65787 11.8125 7 11.8125C4.34213 11.8125 2.1875 9.65787 2.1875 7C2.1875 4.34213 4.34213 2.1875 7 2.1875C9.65787 2.1875 11.8125 4.34213 11.8125 7ZM13.125 7C13.125 10.3827 10.3827 13.125 7 13.125C3.61726 13.125 0.875 10.3827 0.875 7C0.875 3.61726 3.61726 0.875 7 0.875C10.3827 0.875 13.125 3.61726 13.125 7ZM5.71404 4.78596C5.45776 4.52968 5.04224 4.52968 4.78596 4.78596C4.52968 5.04224 4.52968 5.45776 4.78596 5.71404L6.07192 7L4.78596 8.28596C4.52968 8.54224 4.52968 8.95776 4.78596 9.21404C5.04224 9.47032 5.45776 9.47032 5.71404 9.21404L7 7.92808L8.28596 9.21404C8.54224 9.47032 8.95776 9.47032 9.21404 9.21404C9.47032 8.95776 9.47032 8.54224 9.21404 8.28596L7.92808 7L9.21404 5.71404C9.47032 5.45776 9.47032 5.04224 9.21404 4.78596C8.95776 4.52968 8.54224 4.52968 8.28596 4.78596L7 6.07192L5.71404 4.78596Z"/>
</g>
<defs>
<clipPath id="clip0_5278_18244">
<rect width="14" height="14" fill="white"/>
</clipPath>
</defs>
</svg>
