<svg width="14" height="14" viewBox="0 0 14 14" fill="currentColor" xmlns="http://www.w3.org/2000/svg">
<g clip-path="url(#clip0_5330_27812)">
<path d="M7 0.875C7.12775 0.875 7.2326 0.915979 7.31456 0.997937C7.39652 1.0799 7.4375 1.18475 7.4375 1.3125V3.9375C7.4375 4.06525 7.39652 4.1701 7.31456 4.25206C7.2326 4.33402 7.12775 4.375 7 4.375C6.87225 4.375 6.7674 4.33402 6.68544 4.25206C6.60348 4.1701 6.5625 4.06525 6.5625 3.9375V1.3125C6.5625 1.18475 6.60348 1.0799 6.68544 0.997937C6.7674 0.915979 6.87225 0.875 7 0.875ZM7 9.625C7.12775 9.625 7.2326 9.66598 7.31456 9.74794C7.39652 9.8299 7.4375 9.93475 7.4375 10.0625V12.6875C7.4375 12.8153 7.39652 12.9201 7.31456 13.0021C7.2326 13.084 7.12775 13.125 7 13.125C6.87225 13.125 6.7674 13.084 6.68544 13.0021C6.60348 12.9201 6.5625 12.8153 6.5625 12.6875V10.0625C6.5625 9.93475 6.60348 9.8299 6.68544 9.74794C6.7674 9.66598 6.87225 9.625 7 9.625ZM13.125 7C13.125 7.12775 13.084 7.2326 13.0021 7.31456C12.9201 7.39652 12.8153 7.4375 12.6875 7.4375H10.0625C9.93475 7.4375 9.8299 7.39652 9.74794 7.31456C9.66598 7.2326 9.625 7.12775 9.625 7C9.625 6.87225 9.66598 6.7674 9.74794 6.68544C9.8299 6.60348 9.93475 6.5625 10.0625 6.5625H12.6875C12.8153 6.5625 12.9201 6.60348 13.0021 6.68544C13.084 6.7674 13.125 6.87225 13.125 7ZM4.375 7C4.375 7.12775 4.33402 7.2326 4.25206 7.31456C4.1701 7.39652 4.06525 7.4375 3.9375 7.4375H1.3125C1.18475 7.4375 1.0799 7.39652 0.997937 7.31456C0.915979 7.2326 0.875 7.12775 0.875 7C0.875 6.87225 0.915979 6.7674 0.997937 6.68544C1.0799 6.60348 1.18475 6.5625 1.3125 6.5625H3.9375C4.06525 6.5625 4.1701 6.60348 4.25206 6.68544C4.33402 6.7674 4.375 6.87225 4.375 7ZM2.66612 2.66612C2.75742 2.58417 2.86227 2.54319 2.98069 2.54319C3.0991 2.54319 3.19944 2.58417 3.28169 2.66612L5.14106 4.5255C5.22302 4.61679 5.264 4.71931 5.264 4.83306C5.264 4.94681 5.22069 5.04715 5.13406 5.13406C5.04744 5.22098 4.9471 5.26429 4.83306 5.264C4.71902 5.26371 4.6165 5.22273 4.5255 5.14106L2.66612 3.28169C2.58417 3.19973 2.54319 3.0994 2.54319 2.98069C2.54319 2.86198 2.58417 2.75712 2.66612 2.66612ZM8.85938 8.85938C8.95067 8.76808 9.05319 8.72244 9.16694 8.72244C9.28069 8.72244 9.38321 8.76808 9.4745 8.85938L11.3339 10.7188C11.4158 10.8007 11.4568 10.901 11.4568 11.0197C11.4568 11.1385 11.4135 11.241 11.3269 11.3273C11.2402 11.4136 11.1377 11.457 11.0193 11.4572C10.9009 11.4575 10.8006 11.4166 10.7183 11.3343L8.85894 9.47494C8.76765 9.38365 8.722 9.28113 8.722 9.16738C8.722 9.05363 8.76765 8.9511 8.85894 8.85981L8.85938 8.85938ZM11.3339 2.66612C11.4158 2.75742 11.4568 2.86227 11.4568 2.98069C11.4568 3.0991 11.4158 3.19944 11.3339 3.28169L9.4745 5.14106C9.38321 5.22302 9.28069 5.264 9.16694 5.264C9.05319 5.264 8.95285 5.22069 8.86594 5.13406C8.77902 5.04744 8.73571 4.9471 8.736 4.83306C8.73629 4.71902 8.77727 4.6165 8.85894 4.5255L10.7183 2.66612C10.8003 2.58417 10.9006 2.54319 11.0193 2.54319C11.138 2.54319 11.2429 2.58417 11.3339 2.66612ZM5.14062 8.85938C5.23192 8.95067 5.27756 9.05319 5.27756 9.16694C5.27756 9.28069 5.23192 9.38321 5.14062 9.4745L3.28125 11.3339C3.19929 11.4158 3.09896 11.4568 2.98025 11.4568C2.86154 11.4568 2.75902 11.4135 2.67269 11.3269C2.58635 11.2402 2.54304 11.1377 2.54275 11.0193C2.54246 10.9009 2.58344 10.8006 2.66569 10.7183L4.52506 8.85894C4.61635 8.76765 4.71887 8.722 4.83262 8.722C4.94637 8.722 5.0489 8.76765 5.14019 8.85894L5.14062 8.85938Z"/>
</g>
<defs>
<clipPath id="clip0_5330_27812">
<rect width="14" height="14" fill="white"/>
</clipPath>
</defs>
</svg>
